<mxfile host="app.diagrams.net" agent="Mozilla/5.0 (Windows NT 10.0; Win64; x64; rv:141.0) Gecko/20100101 Firefox/141.0" version="28.0.7">
  <diagram name="Страница — 1" id="YuecHtJD9jCJH30dawb4">
    <mxGraphModel dx="2688" dy="1676" grid="1" gridSize="10" guides="1" tooltips="1" connect="1" arrows="1" fold="1" page="1" pageScale="1" pageWidth="827" pageHeight="1169" math="0" shadow="0">
      <root>
        <mxCell id="0" />
        <mxCell id="1" parent="0" />
        <mxCell id="A6LfqUw76iS9w-nKXyQm-16" style="edgeStyle=orthogonalEdgeStyle;rounded=0;orthogonalLoop=1;jettySize=auto;html=1;" edge="1" parent="1" source="A6LfqUw76iS9w-nKXyQm-1" target="A6LfqUw76iS9w-nKXyQm-2">
          <mxGeometry relative="1" as="geometry" />
        </mxCell>
        <mxCell id="A6LfqUw76iS9w-nKXyQm-1" value="фирмы" style="rounded=1;whiteSpace=wrap;html=1;" vertex="1" parent="1">
          <mxGeometry x="100" y="110" width="120" height="60" as="geometry" />
        </mxCell>
        <mxCell id="A6LfqUw76iS9w-nKXyQm-2" value="сотруднимки" style="rounded=1;whiteSpace=wrap;html=1;" vertex="1" parent="1">
          <mxGeometry x="285" y="110" width="120" height="60" as="geometry" />
        </mxCell>
        <mxCell id="A6LfqUw76iS9w-nKXyQm-17" style="edgeStyle=orthogonalEdgeStyle;rounded=0;orthogonalLoop=1;jettySize=auto;html=1;entryX=0.5;entryY=0;entryDx=0;entryDy=0;" edge="1" parent="1" source="A6LfqUw76iS9w-nKXyQm-3" target="A6LfqUw76iS9w-nKXyQm-6">
          <mxGeometry relative="1" as="geometry" />
        </mxCell>
        <mxCell id="A6LfqUw76iS9w-nKXyQm-3" value="документ" style="rounded=1;whiteSpace=wrap;html=1;" vertex="1" parent="1">
          <mxGeometry x="40" y="440" width="120" height="60" as="geometry" />
        </mxCell>
        <mxCell id="A6LfqUw76iS9w-nKXyQm-28" value="" style="edgeStyle=orthogonalEdgeStyle;rounded=0;orthogonalLoop=1;jettySize=auto;html=1;" edge="1" parent="1" source="A6LfqUw76iS9w-nKXyQm-4" target="A6LfqUw76iS9w-nKXyQm-27">
          <mxGeometry relative="1" as="geometry" />
        </mxCell>
        <mxCell id="A6LfqUw76iS9w-nKXyQm-4" value="маршрут согласования документа учатниками" style="rounded=1;whiteSpace=wrap;html=1;" vertex="1" parent="1">
          <mxGeometry x="540" y="200" width="170" height="60" as="geometry" />
        </mxCell>
        <mxCell id="A6LfqUw76iS9w-nKXyQm-5" value="согласование перехода" style="rounded=1;whiteSpace=wrap;html=1;" vertex="1" parent="1">
          <mxGeometry x="570" y="80" width="120" height="60" as="geometry" />
        </mxCell>
        <mxCell id="A6LfqUw76iS9w-nKXyQm-26" style="edgeStyle=orthogonalEdgeStyle;rounded=0;orthogonalLoop=1;jettySize=auto;html=1;" edge="1" parent="1" source="A6LfqUw76iS9w-nKXyQm-6" target="A6LfqUw76iS9w-nKXyQm-7">
          <mxGeometry relative="1" as="geometry" />
        </mxCell>
        <mxCell id="A6LfqUw76iS9w-nKXyQm-6" value="&lt;div&gt;список состояний&amp;nbsp;&lt;/div&gt;&lt;div&gt;документа&lt;/div&gt;" style="rounded=1;whiteSpace=wrap;html=1;" vertex="1" parent="1">
          <mxGeometry x="40" y="570" width="120" height="60" as="geometry" />
        </mxCell>
        <mxCell id="A6LfqUw76iS9w-nKXyQm-23" style="edgeStyle=orthogonalEdgeStyle;rounded=0;orthogonalLoop=1;jettySize=auto;html=1;entryX=0;entryY=0.5;entryDx=0;entryDy=0;" edge="1" parent="1" source="A6LfqUw76iS9w-nKXyQm-7" target="A6LfqUw76iS9w-nKXyQm-22">
          <mxGeometry relative="1" as="geometry" />
        </mxCell>
        <mxCell id="A6LfqUw76iS9w-nKXyQm-7" value="состояние" style="rounded=0;whiteSpace=wrap;html=1;" vertex="1" parent="1">
          <mxGeometry x="50" y="750" width="120" height="60" as="geometry" />
        </mxCell>
        <mxCell id="A6LfqUw76iS9w-nKXyQm-8" value="сосотояние" style="rounded=0;whiteSpace=wrap;html=1;" vertex="1" parent="1">
          <mxGeometry x="405" y="750" width="120" height="60" as="geometry" />
        </mxCell>
        <mxCell id="A6LfqUw76iS9w-nKXyQm-9" value="состояние" style="rounded=0;whiteSpace=wrap;html=1;" vertex="1" parent="1">
          <mxGeometry x="720" y="750" width="120" height="60" as="geometry" />
        </mxCell>
        <mxCell id="A6LfqUw76iS9w-nKXyQm-13" style="edgeStyle=orthogonalEdgeStyle;rounded=0;orthogonalLoop=1;jettySize=auto;html=1;entryX=0;entryY=0.5;entryDx=0;entryDy=0;" edge="1" parent="1" source="A6LfqUw76iS9w-nKXyQm-10" target="A6LfqUw76iS9w-nKXyQm-8">
          <mxGeometry relative="1" as="geometry" />
        </mxCell>
        <mxCell id="A6LfqUw76iS9w-nKXyQm-10" value="" style="ellipse;whiteSpace=wrap;html=1;aspect=fixed;" vertex="1" parent="1">
          <mxGeometry x="260" y="750" width="80" height="80" as="geometry" />
        </mxCell>
        <mxCell id="A6LfqUw76iS9w-nKXyQm-15" style="edgeStyle=orthogonalEdgeStyle;rounded=0;orthogonalLoop=1;jettySize=auto;html=1;entryX=0;entryY=0.5;entryDx=0;entryDy=0;" edge="1" parent="1" source="A6LfqUw76iS9w-nKXyQm-11" target="A6LfqUw76iS9w-nKXyQm-9">
          <mxGeometry relative="1" as="geometry" />
        </mxCell>
        <mxCell id="A6LfqUw76iS9w-nKXyQm-11" value="" style="ellipse;whiteSpace=wrap;html=1;aspect=fixed;" vertex="1" parent="1">
          <mxGeometry x="590" y="750" width="80" height="80" as="geometry" />
        </mxCell>
        <mxCell id="A6LfqUw76iS9w-nKXyQm-12" style="edgeStyle=orthogonalEdgeStyle;rounded=0;orthogonalLoop=1;jettySize=auto;html=1;entryX=0.1;entryY=0.425;entryDx=0;entryDy=0;entryPerimeter=0;" edge="1" parent="1" source="A6LfqUw76iS9w-nKXyQm-7" target="A6LfqUw76iS9w-nKXyQm-10">
          <mxGeometry relative="1" as="geometry" />
        </mxCell>
        <mxCell id="A6LfqUw76iS9w-nKXyQm-14" style="edgeStyle=orthogonalEdgeStyle;rounded=0;orthogonalLoop=1;jettySize=auto;html=1;entryX=0.088;entryY=0.425;entryDx=0;entryDy=0;entryPerimeter=0;" edge="1" parent="1" source="A6LfqUw76iS9w-nKXyQm-8" target="A6LfqUw76iS9w-nKXyQm-11">
          <mxGeometry relative="1" as="geometry" />
        </mxCell>
        <mxCell id="A6LfqUw76iS9w-nKXyQm-19" style="edgeStyle=orthogonalEdgeStyle;rounded=0;orthogonalLoop=1;jettySize=auto;html=1;entryX=0;entryY=0.5;entryDx=0;entryDy=0;" edge="1" parent="1" source="A6LfqUw76iS9w-nKXyQm-3" target="A6LfqUw76iS9w-nKXyQm-20">
          <mxGeometry relative="1" as="geometry">
            <mxPoint x="230" y="485" as="targetPoint" />
          </mxGeometry>
        </mxCell>
        <mxCell id="A6LfqUw76iS9w-nKXyQm-20" value="замечания" style="rounded=1;whiteSpace=wrap;html=1;" vertex="1" parent="1">
          <mxGeometry x="260" y="440" width="120" height="60" as="geometry" />
        </mxCell>
        <mxCell id="A6LfqUw76iS9w-nKXyQm-25" style="edgeStyle=orthogonalEdgeStyle;rounded=0;orthogonalLoop=1;jettySize=auto;html=1;entryX=0;entryY=0.5;entryDx=0;entryDy=0;" edge="1" parent="1" source="A6LfqUw76iS9w-nKXyQm-21" target="A6LfqUw76iS9w-nKXyQm-11">
          <mxGeometry relative="1" as="geometry" />
        </mxCell>
        <mxCell id="A6LfqUw76iS9w-nKXyQm-21" value="сосотояние" style="rounded=0;whiteSpace=wrap;html=1;" vertex="1" parent="1">
          <mxGeometry x="405" y="890" width="120" height="60" as="geometry" />
        </mxCell>
        <mxCell id="A6LfqUw76iS9w-nKXyQm-24" style="edgeStyle=orthogonalEdgeStyle;rounded=0;orthogonalLoop=1;jettySize=auto;html=1;" edge="1" parent="1" source="A6LfqUw76iS9w-nKXyQm-22" target="A6LfqUw76iS9w-nKXyQm-21">
          <mxGeometry relative="1" as="geometry" />
        </mxCell>
        <mxCell id="A6LfqUw76iS9w-nKXyQm-22" value="" style="ellipse;whiteSpace=wrap;html=1;aspect=fixed;" vertex="1" parent="1">
          <mxGeometry x="260" y="870" width="80" height="80" as="geometry" />
        </mxCell>
        <mxCell id="A6LfqUw76iS9w-nKXyQm-29" style="edgeStyle=orthogonalEdgeStyle;rounded=0;orthogonalLoop=1;jettySize=auto;html=1;" edge="1" parent="1" source="A6LfqUw76iS9w-nKXyQm-27" target="A6LfqUw76iS9w-nKXyQm-11">
          <mxGeometry relative="1" as="geometry" />
        </mxCell>
        <mxCell id="A6LfqUw76iS9w-nKXyQm-27" value="Список возможных действий" style="whiteSpace=wrap;html=1;rounded=1;" vertex="1" parent="1">
          <mxGeometry x="565" y="310" width="120" height="60" as="geometry" />
        </mxCell>
        <mxCell id="A6LfqUw76iS9w-nKXyQm-35" style="edgeStyle=orthogonalEdgeStyle;rounded=0;orthogonalLoop=1;jettySize=auto;html=1;entryX=0;entryY=0.5;entryDx=0;entryDy=0;" edge="1" parent="1" source="A6LfqUw76iS9w-nKXyQm-30" target="A6LfqUw76iS9w-nKXyQm-34">
          <mxGeometry relative="1" as="geometry" />
        </mxCell>
        <mxCell id="A6LfqUw76iS9w-nKXyQm-30" value="действие" style="ellipse;whiteSpace=wrap;html=1;aspect=fixed;" vertex="1" parent="1">
          <mxGeometry x="1340" y="240" width="80" height="80" as="geometry" />
        </mxCell>
        <mxCell id="A6LfqUw76iS9w-nKXyQm-53" style="edgeStyle=orthogonalEdgeStyle;rounded=0;orthogonalLoop=1;jettySize=auto;html=1;entryX=0;entryY=0.5;entryDx=0;entryDy=0;" edge="1" parent="1" source="A6LfqUw76iS9w-nKXyQm-31" target="A6LfqUw76iS9w-nKXyQm-39">
          <mxGeometry relative="1" as="geometry" />
        </mxCell>
        <mxCell id="A6LfqUw76iS9w-nKXyQm-31" value="список состояний&lt;br&gt;сосотояние" style="rounded=0;whiteSpace=wrap;html=1;" vertex="1" parent="1">
          <mxGeometry x="990" y="350" width="120" height="60" as="geometry" />
        </mxCell>
        <mxCell id="A6LfqUw76iS9w-nKXyQm-33" value="права" style="rounded=0;whiteSpace=wrap;html=1;" vertex="1" parent="1">
          <mxGeometry x="1320" y="40" width="120" height="60" as="geometry" />
        </mxCell>
        <mxCell id="A6LfqUw76iS9w-nKXyQm-34" value="состояние" style="rounded=0;whiteSpace=wrap;html=1;" vertex="1" parent="1">
          <mxGeometry x="1460" y="250" width="120" height="60" as="geometry" />
        </mxCell>
        <mxCell id="A6LfqUw76iS9w-nKXyQm-36" style="edgeStyle=orthogonalEdgeStyle;rounded=0;orthogonalLoop=1;jettySize=auto;html=1;entryX=0.5;entryY=1;entryDx=0;entryDy=0;" edge="1" parent="1" source="A6LfqUw76iS9w-nKXyQm-30" target="A6LfqUw76iS9w-nKXyQm-33">
          <mxGeometry relative="1" as="geometry" />
        </mxCell>
        <mxCell id="A6LfqUw76iS9w-nKXyQm-39" value="состояние" style="rounded=0;whiteSpace=wrap;html=1;" vertex="1" parent="1">
          <mxGeometry x="1181" y="250" width="120" height="60" as="geometry" />
        </mxCell>
        <mxCell id="A6LfqUw76iS9w-nKXyQm-42" style="edgeStyle=orthogonalEdgeStyle;rounded=0;orthogonalLoop=1;jettySize=auto;html=1;exitX=1;exitY=0.5;exitDx=0;exitDy=0;entryX=0.5;entryY=0;entryDx=0;entryDy=0;" edge="1" parent="1" source="A6LfqUw76iS9w-nKXyQm-43" target="A6LfqUw76iS9w-nKXyQm-45">
          <mxGeometry relative="1" as="geometry">
            <mxPoint x="830" y="380" as="targetPoint" />
            <Array as="points">
              <mxPoint x="1020" y="90" />
              <mxPoint x="1020" y="250" />
              <mxPoint x="850" y="250" />
            </Array>
          </mxGeometry>
        </mxCell>
        <mxCell id="A6LfqUw76iS9w-nKXyQm-41" value="документ" style="rounded=1;whiteSpace=wrap;html=1;" vertex="1" parent="1">
          <mxGeometry x="760" y="160" width="120" height="60" as="geometry" />
        </mxCell>
        <mxCell id="A6LfqUw76iS9w-nKXyQm-44" style="edgeStyle=orthogonalEdgeStyle;rounded=0;orthogonalLoop=1;jettySize=auto;html=1;" edge="1" parent="1" source="A6LfqUw76iS9w-nKXyQm-43" target="A6LfqUw76iS9w-nKXyQm-41">
          <mxGeometry relative="1" as="geometry" />
        </mxCell>
        <mxCell id="A6LfqUw76iS9w-nKXyQm-55" style="edgeStyle=orthogonalEdgeStyle;rounded=0;orthogonalLoop=1;jettySize=auto;html=1;entryX=0.044;entryY=0.549;entryDx=0;entryDy=0;entryPerimeter=0;" edge="1" parent="1" target="A6LfqUw76iS9w-nKXyQm-67">
          <mxGeometry relative="1" as="geometry">
            <mxPoint x="1118.08" y="35.12000000000001" as="targetPoint" />
            <mxPoint x="840" y="77.87999999999988" as="sourcePoint" />
            <Array as="points">
              <mxPoint x="1010" y="78" />
              <mxPoint x="1010" y="80" />
              <mxPoint x="1118" y="80" />
              <mxPoint x="1118" y="73" />
            </Array>
          </mxGeometry>
        </mxCell>
        <mxCell id="A6LfqUw76iS9w-nKXyQm-43" value="тип" style="rounded=1;whiteSpace=wrap;html=1;" vertex="1" parent="1">
          <mxGeometry x="790" y="50" width="120" height="60" as="geometry" />
        </mxCell>
        <mxCell id="A6LfqUw76iS9w-nKXyQm-49" style="edgeStyle=orthogonalEdgeStyle;rounded=0;orthogonalLoop=1;jettySize=auto;html=1;entryX=0;entryY=0.25;entryDx=0;entryDy=0;" edge="1" parent="1" source="A6LfqUw76iS9w-nKXyQm-45" target="A6LfqUw76iS9w-nKXyQm-47">
          <mxGeometry relative="1" as="geometry" />
        </mxCell>
        <mxCell id="A6LfqUw76iS9w-nKXyQm-45" value="список состояний типов" style="rounded=0;whiteSpace=wrap;html=1;" vertex="1" parent="1">
          <mxGeometry x="790" y="300" width="120" height="60" as="geometry" />
        </mxCell>
        <mxCell id="A6LfqUw76iS9w-nKXyQm-58" value="" style="edgeStyle=orthogonalEdgeStyle;rounded=0;orthogonalLoop=1;jettySize=auto;html=1;" edge="1" parent="1" source="A6LfqUw76iS9w-nKXyQm-46" target="A6LfqUw76iS9w-nKXyQm-57">
          <mxGeometry relative="1" as="geometry" />
        </mxCell>
        <mxCell id="A6LfqUw76iS9w-nKXyQm-46" value="список этапов движения" style="rounded=0;whiteSpace=wrap;html=1;" vertex="1" parent="1">
          <mxGeometry x="790" y="420" width="120" height="60" as="geometry" />
        </mxCell>
        <mxCell id="A6LfqUw76iS9w-nKXyQm-48" style="edgeStyle=orthogonalEdgeStyle;rounded=0;orthogonalLoop=1;jettySize=auto;html=1;" edge="1" parent="1" source="A6LfqUw76iS9w-nKXyQm-47" target="A6LfqUw76iS9w-nKXyQm-31">
          <mxGeometry relative="1" as="geometry" />
        </mxCell>
        <mxCell id="A6LfqUw76iS9w-nKXyQm-47" value="" style="triangle;whiteSpace=wrap;html=1;" vertex="1" parent="1">
          <mxGeometry x="930" y="370" width="20" height="40" as="geometry" />
        </mxCell>
        <mxCell id="A6LfqUw76iS9w-nKXyQm-51" style="edgeStyle=orthogonalEdgeStyle;rounded=0;orthogonalLoop=1;jettySize=auto;html=1;entryX=0.1;entryY=1;entryDx=0;entryDy=0;entryPerimeter=0;" edge="1" parent="1" source="A6LfqUw76iS9w-nKXyQm-46" target="A6LfqUw76iS9w-nKXyQm-47">
          <mxGeometry relative="1" as="geometry" />
        </mxCell>
        <mxCell id="A6LfqUw76iS9w-nKXyQm-52" style="edgeStyle=orthogonalEdgeStyle;rounded=0;orthogonalLoop=1;jettySize=auto;html=1;entryX=0.052;entryY=0.51;entryDx=0;entryDy=0;entryPerimeter=0;" edge="1" parent="1" source="A6LfqUw76iS9w-nKXyQm-39" target="A6LfqUw76iS9w-nKXyQm-30">
          <mxGeometry relative="1" as="geometry" />
        </mxCell>
        <mxCell id="A6LfqUw76iS9w-nKXyQm-57" value="этап" style="whiteSpace=wrap;html=1;rounded=0;" vertex="1" parent="1">
          <mxGeometry x="840" y="540" width="90" height="40" as="geometry" />
        </mxCell>
        <mxCell id="A6LfqUw76iS9w-nKXyQm-60" style="edgeStyle=orthogonalEdgeStyle;rounded=0;orthogonalLoop=1;jettySize=auto;html=1;entryX=1;entryY=0.5;entryDx=0;entryDy=0;exitX=0;exitY=0.5;exitDx=0;exitDy=0;" edge="1" parent="1" source="A6LfqUw76iS9w-nKXyQm-65" target="A6LfqUw76iS9w-nKXyQm-57">
          <mxGeometry relative="1" as="geometry">
            <mxPoint x="1191" y="530" as="sourcePoint" />
            <Array as="points">
              <mxPoint x="1150" y="615" />
              <mxPoint x="1150" y="560" />
            </Array>
          </mxGeometry>
        </mxCell>
        <mxCell id="A6LfqUw76iS9w-nKXyQm-64" value="" style="edgeStyle=orthogonalEdgeStyle;rounded=0;orthogonalLoop=1;jettySize=auto;html=1;entryX=0.528;entryY=0.006;entryDx=0;entryDy=0;entryPerimeter=0;" edge="1" parent="1" source="A6LfqUw76iS9w-nKXyQm-62" target="A6LfqUw76iS9w-nKXyQm-65">
          <mxGeometry relative="1" as="geometry">
            <mxPoint x="1460" y="590" as="targetPoint" />
            <Array as="points">
              <mxPoint x="1460" y="585" />
              <mxPoint x="1350" y="585" />
              <mxPoint x="1350" y="510" />
            </Array>
          </mxGeometry>
        </mxCell>
        <mxCell id="A6LfqUw76iS9w-nKXyQm-62" value="список ролей" style="rounded=0;whiteSpace=wrap;html=1;" vertex="1" parent="1">
          <mxGeometry x="1400" y="450" width="120" height="60" as="geometry" />
        </mxCell>
        <mxCell id="A6LfqUw76iS9w-nKXyQm-65" value="роль" style="rounded=1;whiteSpace=wrap;html=1;" vertex="1" parent="1">
          <mxGeometry x="1181" y="585" width="120" height="60" as="geometry" />
        </mxCell>
        <mxCell id="A6LfqUw76iS9w-nKXyQm-70" value="" style="edgeStyle=orthogonalEdgeStyle;rounded=0;orthogonalLoop=1;jettySize=auto;html=1;" edge="1" parent="1" source="A6LfqUw76iS9w-nKXyQm-66" target="A6LfqUw76iS9w-nKXyQm-69">
          <mxGeometry relative="1" as="geometry" />
        </mxCell>
        <mxCell id="A6LfqUw76iS9w-nKXyQm-66" value="&lt;div&gt;проект&lt;/div&gt;&lt;div&gt;&lt;br&gt;&lt;/div&gt;" style="rounded=0;whiteSpace=wrap;html=1;" vertex="1" parent="1">
          <mxGeometry x="870" y="680" width="120" height="60" as="geometry" />
        </mxCell>
        <mxCell id="A6LfqUw76iS9w-nKXyQm-67" value="список действий" style="rounded=0;whiteSpace=wrap;html=1;" vertex="1" parent="1">
          <mxGeometry x="1140" y="40" width="120" height="60" as="geometry" />
        </mxCell>
        <mxCell id="A6LfqUw76iS9w-nKXyQm-68" style="edgeStyle=orthogonalEdgeStyle;rounded=0;orthogonalLoop=1;jettySize=auto;html=1;entryX=0.077;entryY=0.227;entryDx=0;entryDy=0;entryPerimeter=0;" edge="1" parent="1" source="A6LfqUw76iS9w-nKXyQm-67" target="A6LfqUw76iS9w-nKXyQm-30">
          <mxGeometry relative="1" as="geometry">
            <Array as="points">
              <mxPoint x="1210" y="200" />
              <mxPoint x="1346" y="200" />
            </Array>
          </mxGeometry>
        </mxCell>
        <mxCell id="A6LfqUw76iS9w-nKXyQm-72" value="" style="edgeStyle=orthogonalEdgeStyle;rounded=0;orthogonalLoop=1;jettySize=auto;html=1;" edge="1" parent="1" source="A6LfqUw76iS9w-nKXyQm-69" target="A6LfqUw76iS9w-nKXyQm-71">
          <mxGeometry relative="1" as="geometry" />
        </mxCell>
        <mxCell id="A6LfqUw76iS9w-nKXyQm-69" value="структура папок." style="whiteSpace=wrap;html=1;rounded=0;" vertex="1" parent="1">
          <mxGeometry x="1080" y="680" width="120" height="60" as="geometry" />
        </mxCell>
        <mxCell id="A6LfqUw76iS9w-nKXyQm-71" value="документ" style="whiteSpace=wrap;html=1;rounded=0;" vertex="1" parent="1">
          <mxGeometry x="1301" y="680" width="120" height="60" as="geometry" />
        </mxCell>
      </root>
    </mxGraphModel>
  </diagram>
</mxfile>
